<svg width="29" height="17" viewBox="0 0 29 17" fill="none" xmlns="http://www.w3.org/2000/svg">
<path d="M0.232 17L9.424 1.544H14.2L16.864 17H12.16L11.608 13.712H6.904L4.936 17H0.232ZM8.176 10.472H11.632L10.864 5.936L8.176 10.472ZM18.1178 17L19.8218 8.96H18.3578L19.0538 5.624H20.5178L20.6858 4.88C20.8778 4.016 21.1818 3.256 21.5978 2.6C22.0298 1.928 22.6058 1.4 23.3258 1.016C24.0618 0.631999 24.9658 0.439999 26.0378 0.439999C26.6618 0.439999 27.2058 0.487999 27.6698 0.584C28.1338 0.679999 28.5658 0.815999 28.9658 0.991999L28.3418 3.92C28.1338 3.84 27.9178 3.776 27.6938 3.728C27.4698 3.68 27.2298 3.656 26.9738 3.656C26.3978 3.656 25.9738 3.76 25.7018 3.968C25.4458 4.176 25.2698 4.512 25.1738 4.976L25.0298 5.624H27.7178L26.8298 8.96H24.3338L22.6298 17H18.1178Z" fill="url(#paint0_linear_537_3845)"/>
<defs>
<linearGradient id="paint0_linear_537_3845" x1="36.5" y1="10.5" x2="-7.5" y2="9" gradientUnits="userSpaceOnUse">
<stop stop-color="#8B5CF6"/>
<stop offset="0.442836" stop-color="#BC6693"/>
<stop offset="1" stop-color="#F97316"/>
</linearGradient>
</defs>
</svg>
